<?xml version="1.0" standalone="no"?>
<!DOCTYPE svg PUBLIC "-//W3C//DTD SVG 20010904//EN"
 "http://www.w3.org/TR/2001/REC-SVG-20010904/DTD/svg10.dtd">
<svg version="1.0" xmlns="http://www.w3.org/2000/svg"
 width="671.000000pt" height="671.000000pt" viewBox="0 0 671.000000 671.000000"
 preserveAspectRatio="xMidYMid meet">
<metadata>
Created by potrace 1.11, written by Peter Selinger 2001-2013
</metadata>
<g transform="translate(0.000000,671.000000) scale(0.100000,-0.100000)"
fill="#000000" stroke="none">
<path d="M3180 6174 c-19 -2 -82 -9 -140 -15 -263 -27 -597 -118 -849 -232
-588 -266 -1066 -722 -1361 -1299 -33 -64 -60 -119 -60 -122 0 -3 30 -6 68 -6
l68 0 63 118 c379 699 1031 1195 1796 1366 215 48 333 60 595 60 262 0 380
-12 595 -60 765 -171 1417 -667 1796 -1366 l63 -118 68 0 c38 0 68 3 68 6 0 3
-27 58 -60 122 -428 837 -1230 1402 -2165 1527 -114 15 -470 28 -545 19z"/>
<path d="M3120 5199 c-338 -43 -677 -190 -945 -409 -74 -61 -275 -266 -275
-281 0 -5 655 -9 1455 -9 874 0 1455 4 1455 9 0 16 -200 219 -275 281 -265
217 -585 356 -926 405 -112 16 -380 18 -489 4z"/>
<path d="M3062 3729 c-183 -31 -292 -185 -292 -414 0 -233 97 -365 292 -396
114 -18 265 25 289 83 11 27 8 103 -5 115 -3 4 -37 -8 -74 -25 -134 -62 -237
-37 -295 73 -19 34 -22 57 -22 155 0 101 3 121 24 163 35 72 79 101 160 105
59 3 73 0 125 -27 33 -18 65 -30 73 -27 9 4 13 25 13 64 0 48 -4 62 -22 79
-47 43 -172 67 -266 52z"/>
<path d="M798 3723 c-12 -3 -18 -14 -18 -31 1 -39 187 -743 200 -756 6 -6 49
-11 101 -11 72 0 93 3 103 16 6 9 38 130 71 268 l59 252 66 -258 c59 -232 67
-259 90 -271 35 -18 164 -12 185 9 15 15 205 714 205 755 0 26 -17 34 -70 34
-85 0 -78 15 -155 -324 l-70 -307 -76 303 c-84 337 -79 328 -166 328 -77 0
-89 -10 -108 -92 -9 -40 -41 -176 -72 -303 l-56 -230 -69 300 c-48 209 -73
304 -85 313 -16 11 -98 15 -135 5z"/>
<path d="M3794 3713 c-14 -12 -64 -140 -148 -383 -69 -201 -126 -371 -126
-378 0 -28 81 -42 134 -23 20 8 30 27 52 95 l28 86 146 0 146 0 29 -89 c31
-98 34 -101 117 -101 60 0 78 7 78 34 0 21 -244 729 -260 757 -7 10 -34 15
-92 17 -70 3 -87 1 -104 -15z m140 -318 c25 -77 46 -143 46 -148 0 -4 -47 -7
-104 -7 l-104 0 51 155 c28 85 54 151 58 147 4 -4 27 -70 53 -147z"/>
<path d="M4490 3710 c-13 -8 -15 -63 -18 -382 -1 -205 2 -379 6 -386 12 -17
101 -26 135 -13 l27 11 0 155 0 155 35 0 c80 0 108 -36 185 -228 18 -45 41
-87 51 -92 23 -13 100 -13 134 0 32 12 32 9 -38 174 -33 77 -63 132 -87 157
l-36 38 28 12 c33 13 85 70 100 108 5 14 10 54 10 88 -1 103 -56 174 -158 202
-48 13 -353 14 -374 1z m336 -153 c29 -34 32 -101 6 -133 -27 -34 -56 -44
-126 -44 l-66 0 0 106 0 106 81 -4 c74 -3 83 -6 105 -31z"/>
<path d="M2186 3515 c-56 -20 -86 -44 -123 -98 -39 -59 -57 -139 -51 -237 7
-113 52 -196 129 -236 72 -37 255 -37 344 0 34 15 35 16 35 70 0 64 -6 67 -80
41 -23 -8 -75 -15 -115 -15 -83 0 -117 19 -141 76 -28 66 -32 64 160 64 204 0
206 1 206 85 0 164 -98 265 -255 264 -38 0 -88 -6 -109 -14z m143 -106 c34
-12 61 -53 61 -94 l0 -25 -110 0 -110 0 6 28 c8 36 36 74 65 89 30 16 47 16
88 2z"/>
<path d="M5425 3518 c-54 -19 -112 -69 -139 -117 -36 -67 -51 -173 -36 -262
29 -171 155 -247 363 -219 123 17 147 34 147 106 0 44 -15 49 -81 30 -67 -20
-171 -21 -209 -1 -33 17 -60 61 -60 100 l0 25 173 0 c121 0 177 4 185 12 15
15 16 115 0 175 -15 60 -87 137 -143 152 -50 14 -160 13 -200 -1z m139 -108
c29 -11 51 -42 61 -87 l7 -33 -111 0 c-105 0 -111 1 -111 20 0 75 82 128 154
100z"/>
<path d="M770 2189 c0 -19 118 -242 184 -346 453 -721 1186 -1190 2046 -1309
173 -24 547 -24 720 0 860 119 1593 588 2046 1309 66 104 184 327 184 346 0 7
-27 11 -70 11 -38 0 -70 -4 -70 -10 0 -17 -121 -232 -187 -333 -381 -579 -990
-1000 -1668 -1151 -215 -48 -333 -60 -595 -60 -262 0 -380 12 -595 60 -763
170 -1414 665 -1794 1362 -33 62 -61 117 -61 122 0 6 -31 10 -70 10 -43 0 -70
-4 -70 -11z"/>
<path d="M1948 2143 c274 -317 643 -531 1057 -613 156 -31 446 -39 605 -16
321 47 604 163 860 355 82 61 240 209 302 284 l40 47 -1457 0 -1457 0 50 -57z"/>
</g>
</svg>
